<svg id='Delta_Airlines_24' width='24' height='24' viewBox='0 0 24 24' xmlns='http://www.w3.org/2000/svg' xmlns:xlink='http://www.w3.org/1999/xlink'><rect width='24' height='24' stroke='none' fill='#000000' opacity='0'/>


    <g transform="matrix(0.31 0 0 0.31 12 12)" >
        <g style="" >
            <g transform="matrix(1 0 0 1 12.33 11.78)" >
                <linearGradient id="SVGID_H-ovmYPIdLDltmfYqAw5ca_1" gradientUnits="userSpaceOnUse" gradientTransform="matrix(1 0 0 1 0 0)" x1="44.33" y1="36.403" x2="44.33" y2="49.8">
                    <stop offset="0%" style="stop-color:rgb(109,199,255);stop-opacity: 1"/>
                    <stop offset="100%" style="stop-color:rgb(230,171,255);stop-opacity: 1"/>
                </linearGradient>
                <path style="stroke: none; stroke-width: 1; stroke-dasharray: none; stroke-linecap: butt; stroke-dashoffset: 0; stroke-linejoin: miter; stroke-miterlimit: 4; fill: url(#SVGID_H-ovmYPIdLDltmfYqAw5ca_1); fill-rule: nonzero; opacity: 1;" transform=" translate(-44.33, -43.78)" d="M 56.66 50 L 32 50 L 32 37.56 L 32.04 37.56 C 32.36 37.56 32.68 37.64 32.98 37.79 L 55.91 49 L 56.129999999999995 49.12 C 56.5 49.32 56.66 49.66 56.66 50 z" stroke-linecap="round" />
            </g>
            <g transform="matrix(1 0 0 1 11.41 -4.96)" >
                <linearGradient id="SVGID_H-ovmYPIdLDltmfYqAw5cb_2" gradientUnits="userSpaceOnUse" gradientTransform="matrix(1 0 0 1 0 0)" x1="43.41" y1="5.643" x2="43.41" y2="44.506">
                    <stop offset="0%" style="stop-color:rgb(109,199,255);stop-opacity: 1"/>
                    <stop offset="100%" style="stop-color:rgb(230,171,255);stop-opacity: 1"/>
                </linearGradient>
                <path style="stroke: none; stroke-width: 1; stroke-dasharray: none; stroke-linecap: butt; stroke-dashoffset: 0; stroke-linejoin: miter; stroke-miterlimit: 4; fill: url(#SVGID_H-ovmYPIdLDltmfYqAw5cb_2); fill-rule: nonzero; opacity: 1;" transform=" translate(-43.41, -27.04)" d="M 54.82 44.93 C 54.54 45.11 54.18 45.15 53.82 44.96 L 53.57 44.83 L 32.94 35.239999999999995 C 32.65 35.08 32.32 35 32 35 L 32 9 L 54.82 44.93 z" stroke-linecap="round" />
            </g>
            <g transform="matrix(1 0 0 1 -0.2 -5.11)" >
                <linearGradient id="SVGID_H-ovmYPIdLDltmfYqAw5cc_3" gradientUnits="userSpaceOnUse" gradientTransform="matrix(1 0 0 1 0 0)" x1="31.799" y1="-0.961" x2="31.799" y2="60.248">
                    <stop offset="0%" style="stop-color:rgb(26,109,255);stop-opacity: 1"/>
                    <stop offset="100%" style="stop-color:rgb(200,34,255);stop-opacity: 1"/>
                </linearGradient>
                <path style="stroke: none; stroke-width: 1; stroke-dasharray: none; stroke-linecap: butt; stroke-dashoffset: 0; stroke-linejoin: miter; stroke-miterlimit: 4; fill: url(#SVGID_H-ovmYPIdLDltmfYqAw5cc_3); fill-rule: nonzero; opacity: 1;" transform=" translate(-31.8, -26.89)" d="M 55.14 43.55 L 54.980000000000004 43.3 L 32.85 8.47 C 32.480000000000004 7.890000000000001 31.520000000000003 7.890000000000001 31.150000000000002 8.47 L 8.6 43.98 L 8.46 44.2 C 7.910000000000001 45.07 8.89 46.11 9.790000000000001 45.61 L 10.020000000000001 45.48 L 31 35.27 L 31.03 35.25 C 31.33 35.08 31.67 35 32 35 C 32.32 35 32.65 35.08 32.94 35.24 L 33 35.27 L 53.57 44.830000000000005 L 53.82 44.96000000000001 C 54.18 45.150000000000006 54.54 45.11000000000001 54.82 44.93000000000001 C 55.24 44.66 55.47 44.08 55.14 43.55 z M 30.06 33.5 L 12.23 41.96 L 31 12.47 L 31 33.13 C 30.67 33.21 30.36 33.34 30.06 33.5 z M 33.89 33.47 C 33.61 33.32 33.31 33.199999999999996 33 33.129999999999995 L 33 12.47 L 51.41 41.39 L 33.89 33.47 z" stroke-linecap="round" />
            </g>
            <g transform="matrix(1 0 0 1 0.42 12.28)" >
                <linearGradient id="SVGID_H-ovmYPIdLDltmfYqAw5cd_4" gradientUnits="userSpaceOnUse" gradientTransform="matrix(1 0 0 1 0 0)" x1="32.418" y1="-0.961" x2="32.418" y2="60.248">
                    <stop offset="0%" style="stop-color:rgb(26,109,255);stop-opacity: 1"/>
                    <stop offset="100%" style="stop-color:rgb(200,34,255);stop-opacity: 1"/>
                </linearGradient>
                <path style="stroke: none; stroke-width: 1; stroke-dasharray: none; stroke-linecap: butt; stroke-dashoffset: 0; stroke-linejoin: miter; stroke-miterlimit: 4; fill: url(#SVGID_H-ovmYPIdLDltmfYqAw5cd_4); fill-rule: nonzero; opacity: 1;" transform=" translate(-32.42, -44.28)" d="M 56.13 49.12 L 55.91 49 L 33 37.8 L 32.98 37.79 C 32.68 37.64 32.36 37.56 32.04 37.56 L 32 37.56 C 31.67 37.57 31.36 37.650000000000006 31.06 37.81 L 31 37.84 L 8.92 49 L 8.69 49.13 C 7.79 49.63 8.15 51 9.18 51 L 55.66 51 C 56.29 51 56.66 50.51 56.66 50 C 56.66 49.66 56.5 49.32 56.13 49.12 z M 13.04 49 L 31 40.14 L 31 49 L 13.04 49 z M 33 49 L 33 40.08 L 51.65 49 L 33 49 z" stroke-linecap="round" />
            </g>
        </g>
    </g>
</svg>
